<?xml version="1.0" encoding="UTF-8"?>
<svg id="Calque_2" data-name="Calque 2" xmlns="http://www.w3.org/2000/svg" viewBox="0 0 297.78 200.55">
  <defs>
    <style>
      .cls-1 {
        fill: #fff;
      }

      .cls-2 {
        fill: none;
        stroke: #fff;
        stroke-miterlimit: 10;
        stroke-width: 5.27px;
      }
    </style>
  </defs>
  <g id="Maquette">
    <g>
      <g>
        <path class="cls-1" d="m18.55,46.9c-5.8-1.29-8.38-3.87-8.38-8.16s2.58-7.23,6.95-7.23c1.43,0,3.29.43,5.08,1.22,3.44,1.5,6.52,2.43,10.17,2.43,4.65,0,5.94-.79,5.94-2.01,0-1.07-1.36-2.08-7.09-2.36-14.18-.72-19.48-5.8-19.48-14.46S18.63,0,35.1,0c5.44,0,9.67.43,12.82,1.43,5.08,1.65,6.73,4.01,6.73,7.59s-2.72,6.3-6.23,6.3c-1,0-2.36-.14-3.65-.64-3.8-1.36-6.09-1.86-9.09-1.86-4.51,0-5.23.72-5.23,1.86,0,1.22,1.58,2.08,6.95,2.36,13.53.79,19.26,4.94,19.26,14.47,0,11.1-9.02,16.83-22.77,16.83-5.37,0-11.39-.57-15.32-1.43Z"/>
        <path class="cls-1" d="m81.07,47.69c-6.45,0-9.02-3.08-9.02-8.52,0-4.3.72-8.74.72-15.54,0-3.15-.07-5.94-.14-8.95-2.43.14-4.87.21-8.02.21-4.23,0-7.23-2.36-7.23-7.09,0-4.3,2.43-7.09,7.3-7.09s9.52.36,15.68.36c7.45,0,11.39-.64,16.69-.64s7.52,2.58,7.52,7.23-3.15,7.02-7.66,7.02c-3.15,0-5.23,0-7.16-.07-.07,2.94-.07,5.87-.07,8.38,0,7.16.29,11.31.29,15.25,0,6.3-3.01,9.45-8.88,9.45Z"/>
        <path class="cls-1" d="m135.5,43.39c-2.22-2.79-4.8-6.73-7.3-11.74-.86,0-1.72-.07-2.65-.07.07,2.94.07,4.87.07,7.23,0,5.8-3.22,8.81-8.81,8.81-6.16,0-9.02-2.94-9.02-7.95,0-4.01.64-7.88.64-15.83,0-5.01-.07-10.88-.07-14.97,0-4.58,1.93-7.02,6.66-7.59,6.66-.79,12.67-1.15,17.62-1.15,16.61,0,22.7,6.95,22.7,15.54,0,7.23-4.65,11.89-12.82,14.03,2.22,1.58,4.08,2.72,7.02,4.23,5.87,3.01,7.02,5.51,7.02,7.88,0,4.08-4.51,6.95-9.52,6.95s-8.66-1.79-11.53-5.37Zm1.5-26.92c0-2.94-1.79-4.15-7.09-4.15-1.22,0-2.65.07-4.15.14-.07,2.79-.14,5.51-.14,8.38,1.29.07,2.58.07,3.72.07,5.73,0,7.66-1.72,7.66-4.44Z"/>
        <path class="cls-1" d="m195.66,47.91c-5.01,0-9.02-.36-14.61-.36-4.8,0-11.1.36-14.04.36-4.73,0-6.73-2.01-6.73-6.23,0-4.87.5-10.96.5-18.26,0-6.52-.43-10.6-.43-16.47,0-4.23,2.08-6.59,7.02-6.59s7.38.43,13.61.43,8.88-.36,14.18-.36c4.94,0,6.66,2.29,6.66,6.16,0,4.22-2.22,7.16-6.73,7.16-3.94,0-7.3-.36-10.67-.36-2.51,0-4.51.07-6.73.14-.07,1.36-.14,2.65-.21,3.94,2.29.07,4.37.07,5.73.07,1.86,0,4.65-.36,7.09-.36,4.08,0,6.37,1.72,6.37,6.23,0,5.01-2.36,6.95-6.37,6.95-2.29,0-4.44-.21-6.45-.21-1.36,0-3.87,0-6.44.14.07,1.5.14,2.86.14,4.23,2.15.07,4.01.14,5.66.14,3.87,0,7.02-.29,11.82-.29,4.37,0,7.02,1.86,7.02,7.09,0,4.22-2.36,6.44-6.37,6.44Z"/>
        <path class="cls-1" d="m242.06,47.91c-5.01,0-9.02-.36-14.61-.36-4.8,0-11.1.36-14.03.36-4.73,0-6.73-2.01-6.73-6.23,0-4.87.5-10.96.5-18.26,0-6.52-.43-10.6-.43-16.47,0-4.23,2.08-6.59,7.02-6.59s7.38.43,13.61.43,8.88-.36,14.18-.36c4.94,0,6.66,2.29,6.66,6.16,0,4.22-2.22,7.16-6.73,7.16-3.94,0-7.3-.36-10.67-.36-2.51,0-4.51.07-6.73.14-.07,1.36-.14,2.65-.21,3.94,2.29.07,4.37.07,5.73.07,1.86,0,4.65-.36,7.09-.36,4.08,0,6.37,1.72,6.37,6.23,0,5.01-2.36,6.95-6.37,6.95-2.29,0-4.44-.21-6.44-.21-1.36,0-3.87,0-6.45.14.07,1.5.14,2.86.14,4.23,2.15.07,4.01.14,5.66.14,3.87,0,7.02-.29,11.82-.29,4.37,0,7.02,1.86,7.02,7.09,0,4.22-2.36,6.44-6.37,6.44Z"/>
        <path class="cls-1" d="m274.29,47.69c-6.44,0-9.02-3.08-9.02-8.52,0-4.3.72-8.74.72-15.54,0-3.15-.07-5.94-.14-8.95-2.43.14-4.87.21-8.02.21-4.23,0-7.23-2.36-7.23-7.09,0-4.3,2.43-7.09,7.3-7.09s9.52.36,15.68.36c7.45,0,11.39-.64,16.68-.64s7.52,2.58,7.52,7.23-3.15,7.02-7.66,7.02c-3.15,0-5.23,0-7.16-.07-.07,2.94-.07,5.87-.07,8.38,0,7.16.29,11.31.29,15.25,0,6.3-3.01,9.45-8.88,9.45Z"/>
      </g>
      <g>
        <path class="cls-2" d="m30.12,83.77c-.92-10.48,4.62-16.78,16.04-17.78,11.01-.96,16.61,2.74,17.67,14.83.88,10.07.76,17.93,2.54,38.35,2.17,24.85-10.49,37.86-31.31,39.68-8.06.71-15.57-.13-20.85-1.69-7.35-2.06-11-6.62-11.49-12.26-.73-8.33,3.1-14.07,9.01-14.59,2.42-.21,5.16.22,7.54,1.1,2.66.99,5.67,1.4,7.55,1.23,5.1-.45,8.27-4.51,7.55-12.7-1.32-15.04-3.26-24.89-4.25-36.17Z"/>
        <path class="cls-2" d="m132.68,136.1c-.54-1.58-1.1-3.29-1.63-4.73-4.59.13-9.69.58-13.19.88-2.95.26-8.45.87-13.4,1.58-.36,2.06-.86,4.13-1.21,6.33-1.65,8.94-6.63,12.35-16.71,13.24-9.67.85-13.94-3.11-14.48-9.29-.28-3.22.35-6.8,3.12-15.43,6.69-21.02,8.27-27.65,14.46-49.71,3.61-12.9,9.84-17.51,23.67-18.72,14.91-1.3,21.08,1.13,26.14,12.6,9.62,21.76,12.24,26.94,23.21,47.23,3.72,6.98,5.26,10.64,5.61,14.67.59,6.72-4.44,12.7-17.33,13.83-9.4.82-14.68-2.23-18.28-12.47Zm-9.4-25.43c-2.82-7.47-5.43-14.14-8.51-21.45-2.27,8.05-4.2,15.39-5.86,22.71l14.37-1.26Z"/>
        <path class="cls-2" d="m250.9,123.18c-.78-8.86-.5-18.09-1.23-26.42l-.61-6.98c-2.84,12.43-5.66,24.99-6.6,28.18-2.41,8.06-6.68,11.82-13.8,12.44-7.92.69-13.7-1.91-16.66-9.5-3.66-9.29-6.33-16.63-9.61-26.36v.13c1.25,12.61,2.5,22.25,3.37,32.19.8,9.13-3.76,15.76-13.7,16.63-11.28.99-16.55-3.56-17.4-13.23-.82-9.4-.72-19.02-1.66-29.76-.63-7.25-2.38-21.04-3.02-28.29-.91-10.34,4.95-17.62,18.92-18.84,13.03-1.14,19.87,1.24,25.03,12.29,5.69,12.49,8.53,18.6,12.44,26.25,3.21-9.75,5.4-17.12,8.53-27.81,3.22-11.11,9.89-15.35,22.24-16.43,14.64-1.28,21.4,4.89,22.44,16.71.75,8.6.88,16.3,2.09,30.13.8,9.13,1.98,14.85,3.03,26.94.86,9.8-5.1,16.01-15.03,16.88-11.95,1.05-17.74-3.18-18.78-15.14Z"/>
      </g>
      <g>
        <path class="cls-1" d="m16.44,199.9c-5.37,0-7.14-2.54-7.14-6.61,0-5.48.41-7.9.41-11.62,0-4.48-.35-7.55-.35-14.57,0-4.31,1.42-6.49,6.61-6.49,2.42,0,8.02.29,10.73.29,5.01,0,7.02-.24,10.97-.24,4.25,0,5.78,2.12,5.78,5.66,0,3.95-2.01,5.66-5.78,5.66-2.59,0-4.54-.24-7.2-.24h-6.49c-.06,2.01-.12,3.42-.18,4.84h3.13c3.13,0,4.31-.29,7.43-.29,3.6,0,5.43,2.01,5.43,5.37,0,3.07-1.65,5.19-5.31,5.19-2.89,0-4.36-.18-7.96-.18h-2.65c.12,2.12.3,4.13.3,7.02,0,3.42-1.71,6.19-7.73,6.19Z"/>
        <path class="cls-1" d="m75.24,199.78c-4.13,0-7.43-.3-12.03-.3-3.95,0-9.14.3-11.56.3-3.89,0-5.54-1.65-5.54-5.13,0-4.01.41-9.02.41-15.04,0-5.37-.35-8.73-.35-13.56,0-3.48,1.71-5.43,5.78-5.43s6.07.35,11.21.35,7.31-.29,11.68-.29c4.07,0,5.48,1.89,5.48,5.07,0,3.48-1.83,5.9-5.54,5.9-3.24,0-6.02-.3-8.79-.3-2.06,0-3.72.06-5.54.12-.06,1.12-.12,2.18-.18,3.24,1.89.06,3.6.06,4.72.06,1.53,0,3.83-.29,5.84-.29,3.36,0,5.25,1.42,5.25,5.13,0,4.13-1.95,5.72-5.25,5.72-1.89,0-3.66-.18-5.31-.18-1.12,0-3.18,0-5.31.12.06,1.24.12,2.36.12,3.48,1.77.06,3.3.12,4.66.12,3.18,0,5.78-.24,9.73-.24,3.6,0,5.78,1.53,5.78,5.84,0,3.48-1.95,5.31-5.25,5.31Z"/>
        <path class="cls-1" d="m89.33,198.96c-4.78-1.06-6.9-3.18-6.9-6.72s2.12-5.96,5.72-5.96c1.18,0,2.71.35,4.19,1,2.83,1.24,5.37,2.01,8.37,2.01,3.83,0,4.9-.65,4.9-1.65,0-.88-1.12-1.71-5.84-1.95-11.68-.59-16.04-4.78-16.04-11.91s5.66-13.45,19.23-13.45c4.48,0,7.96.35,10.56,1.18,4.19,1.36,5.54,3.3,5.54,6.25s-2.24,5.19-5.13,5.19c-.83,0-1.95-.12-3.01-.53-3.13-1.12-5.01-1.53-7.49-1.53-3.72,0-4.31.59-4.31,1.53,0,1,1.3,1.71,5.72,1.95,11.15.65,15.86,4.07,15.86,11.91,0,9.14-7.43,13.86-18.76,13.86-4.42,0-9.38-.47-12.62-1.18Z"/>
        <path class="cls-1" d="m140.82,199.61c-5.31,0-7.43-2.54-7.43-7.02,0-3.54.59-7.2.59-12.8,0-2.59-.06-4.9-.12-7.37-2.01.12-4.01.18-6.61.18-3.48,0-5.96-1.95-5.96-5.84,0-3.54,2.01-5.84,6.02-5.84s7.84.3,12.92.3c6.13,0,9.38-.53,13.74-.53s6.19,2.12,6.19,5.96-2.6,5.78-6.31,5.78c-2.59,0-4.31,0-5.9-.06-.06,2.42-.06,4.84-.06,6.9,0,5.9.24,9.32.24,12.56,0,5.19-2.48,7.78-7.31,7.78Z"/>
        <path class="cls-1" d="m170.37,160.68c5.01,0,7.37,2.06,7.37,7.2,0,3.54-.47,6.55-.47,12.44,0,4.78.29,8.08.29,12.62,0,3.66-2.89,6.66-7.08,6.66-4.84,0-7.43-2.65-7.43-6.9,0-3.6.24-7.73.24-12.15,0-5.31-.35-8.43-.35-12.5,0-4.9,2.3-7.37,7.43-7.37Z"/>
        <path class="cls-1" d="m189.83,193.18c-2.59-7.73-4.36-13.15-6.31-18.16-1.95-5.07-2.71-7.37-2.71-8.91,0-3.6,2.83-5.66,8.14-5.66,3.77,0,5.48,1.65,6.78,6.19,2.24,7.84,3.72,12.86,5.9,19.23,1.89-6.19,3.01-10.38,5.13-18.46,1.24-4.78,3.42-6.66,7.67-6.66s6.02,1.83,6.02,4.42c0,1.53-.35,3.48-1.47,7.31-2.48,8.37-3.72,12.27-6.96,21.06-2,5.48-5.66,7.02-11.03,7.02-6.07,0-9.32-2.01-11.15-7.37Z"/>
        <path class="cls-1" d="m244.8,194.12c-.18-.71-.35-1.47-.53-2.12-2.01-.12-4.25-.12-5.78-.12-1.3,0-3.71.06-5.9.18-.24.89-.53,1.77-.77,2.71-1.06,3.83-3.36,5.13-7.79,5.13s-5.96-1.89-5.96-4.6c0-1.42.41-2.95,1.95-6.61,3.71-8.91,4.66-11.74,8.2-21.11,2.06-5.48,4.95-7.25,11.03-7.25,6.55,0,9.14,1.3,10.91,6.49,3.36,9.85,4.31,12.21,8.32,21.47,1.36,3.19,1.89,4.84,1.89,6.61,0,2.95-2.42,5.37-8.08,5.37-4.13,0-6.31-1.53-7.49-6.13Zm-3.13-11.44c-.94-3.36-1.83-6.37-2.89-9.67-1.3,3.42-2.42,6.55-3.42,9.67h6.31Z"/>
        <path class="cls-1" d="m280.72,199.9c-6.6,0-9.02.24-11.91.24-3.36,0-5.48-1.53-5.48-5.25,0-3.95.41-6.78.41-14.21,0-5.78-.35-8.2-.35-13.09s2.83-7.02,7.43-7.02c4.84,0,7.31,2.3,7.31,6.66s-.35,7.96-.35,13.51c0,2.83.12,5.01.24,8.02h2.65c3.83,0,6.02-.29,8.49-.29,4.36,0,6.08,2.54,6.08,5.84,0,3.89-2.06,5.84-6.31,5.84-2.24,0-4.48-.24-8.2-.24Z"/>
      </g>
    </g>
  </g>
</svg>